<svg width="32" height="32" viewBox="0 0 32 32" fill="none" xmlns="http://www.w3.org/2000/svg">
<g clip-path="url(#clip0_207_607)">
<path d="M13.9088 25.3659C15.2004 22.7242 15.2866 18.6554 15.4988 14.6618C15.7759 18.9439 16.1487 22.8816 15.1155 25.8598C14.4679 27.5859 13.8937 28.2588 12.814 29.2132C12.4556 29.5368 11.9028 29.5085 11.5792 29.1501C11.2169 28.7487 11.3019 28.1162 11.7609 27.8252C11.8262 27.7685 13.0471 27.145 13.9088 25.3659Z" fill="#96BF16"/>
<path d="M13.9088 25.3659C15.2004 22.7242 15.2866 18.6554 15.4988 14.6618C15.7759 18.9439 16.1487 22.8816 15.1155 25.8598C14.4679 27.5859 13.8937 28.2588 12.814 29.2132C12.4556 29.5368 11.9028 29.5085 11.5792 29.1501C11.2169 28.7487 11.3019 28.1162 11.7609 27.8252C11.8262 27.7685 13.0471 27.145 13.9088 25.3659Z" fill="#96BF16"/>
<path d="M24.268 11.4578C22.5123 13.2134 15.5 13.5 15.5 13.5C15.5 13.5 15.7866 6.48762 17.5422 4.73204C18.5183 3.75599 20.1027 3.75599 21.0787 4.73204C21.7819 5.43527 21.9789 6.45215 21.671 7.32897C22.5478 7.0211 23.5647 7.21806 24.2665 7.91987C25.2439 8.89735 25.2439 10.4818 24.268 11.4578ZM6.73203 15.5422C8.48765 13.7866 15.5 13.5 15.5 13.5C15.5 13.5 15.2134 20.5124 13.4578 22.268C12.4817 23.244 10.8973 23.244 9.92132 22.268C9.21809 21.5648 9.02113 20.5479 9.32895 19.6711C8.45214 19.9789 7.43525 19.782 6.7335 19.0802C5.75602 18.1027 5.75602 16.5183 6.73203 15.5422ZM17.5422 22.268C15.7866 20.5124 15.5 13.5 15.5 13.5C15.5 13.5 22.5124 13.7866 24.268 15.5423C25.244 16.5183 25.244 18.1027 24.268 19.0787C23.5647 19.782 22.5479 19.9789 21.671 19.6711C21.9789 20.5479 21.782 21.5648 21.0802 22.2666C20.1027 23.244 18.5183 23.244 17.5422 22.268ZM13.4578 4.73209C15.2134 6.48771 15.5 13.5 15.5 13.5C15.5 13.5 8.4876 13.2134 6.73203 11.4578C5.75597 10.4818 5.75602 8.89735 6.73203 7.92134C7.43525 7.21811 8.45214 7.02114 9.32895 7.32897C9.02108 6.45215 9.21805 5.43527 9.91985 4.73351C10.8973 3.75608 12.4817 3.75608 13.4578 4.73209Z" fill="#A1D51C"/>
<path d="M24.268 11.4578C22.5123 13.2134 15.5 13.5 15.5 13.5C15.5 13.5 15.7866 6.48762 17.5422 4.73204C18.5183 3.75599 20.1027 3.75599 21.0787 4.73204C21.7819 5.43527 21.9789 6.45215 21.671 7.32897C22.5478 7.0211 23.5647 7.21806 24.2665 7.91987C25.2439 8.89735 25.2439 10.4818 24.268 11.4578ZM6.73203 15.5422C8.48765 13.7866 15.5 13.5 15.5 13.5C15.5 13.5 15.2134 20.5124 13.4578 22.268C12.4817 23.244 10.8973 23.244 9.92132 22.268C9.21809 21.5648 9.02113 20.5479 9.32895 19.6711C8.45214 19.9789 7.43525 19.782 6.7335 19.0802C5.75602 18.1027 5.75602 16.5183 6.73203 15.5422ZM17.5422 22.268C15.7866 20.5124 15.5 13.5 15.5 13.5C15.5 13.5 22.5124 13.7866 24.268 15.5423C25.244 16.5183 25.244 18.1027 24.268 19.0787C23.5647 19.782 22.5479 19.9789 21.671 19.6711C21.9789 20.5479 21.782 21.5648 21.0802 22.2666C20.1027 23.244 18.5183 23.244 17.5422 22.268ZM13.4578 4.73209C15.2134 6.48771 15.5 13.5 15.5 13.5C15.5 13.5 8.4876 13.2134 6.73203 11.4578C5.75597 10.4818 5.75602 8.89735 6.73203 7.92134C7.43525 7.21811 8.45214 7.02114 9.32895 7.32897C9.02108 6.45215 9.21805 5.43527 9.91985 4.73351C10.8973 3.75608 12.4817 3.75608 13.4578 4.73209Z" fill="#A1D51C"/>
</g>
<defs>
<clipPath id="clip0_207_607">
<rect width="32" height="32" fill="white"/>
</clipPath>
</defs>
</svg>
