<svg width="104" height="21" viewBox="0 0 104 21" fill="none" xmlns="http://www.w3.org/2000/svg">
<path d="M26.5605 12.7549H29.1885C29.1357 13.6162 28.8984 14.3809 28.4766 15.0488C28.0605 15.7168 27.4775 16.2383 26.7275 16.6133C25.9834 16.9883 25.0869 17.1758 24.0381 17.1758C23.2178 17.1758 22.4824 17.0352 21.832 16.7539C21.1816 16.4668 20.625 16.0566 20.1621 15.5234C19.7051 14.9902 19.3564 14.3457 19.1162 13.5898C18.876 12.834 18.7559 11.9873 18.7559 11.0498V10.1621C18.7559 9.22461 18.8789 8.37793 19.125 7.62207C19.377 6.86035 19.7344 6.21289 20.1973 5.67969C20.666 5.14648 21.2256 4.73633 21.876 4.44922C22.5264 4.16211 23.2529 4.01855 24.0557 4.01855C25.1221 4.01855 26.0215 4.21191 26.7539 4.59863C27.4922 4.98535 28.0635 5.51855 28.4678 6.19824C28.8779 6.87793 29.124 7.65137 29.2061 8.51855H26.5693C26.54 8.00293 26.4375 7.56641 26.2617 7.20898C26.0859 6.8457 25.8193 6.57324 25.4619 6.3916C25.1104 6.2041 24.6416 6.11035 24.0557 6.11035C23.6162 6.11035 23.2324 6.19238 22.9043 6.35645C22.5762 6.52051 22.3008 6.76953 22.0781 7.10352C21.8555 7.4375 21.6885 7.85938 21.5771 8.36914C21.4717 8.87305 21.4189 9.46484 21.4189 10.1445V11.0498C21.4189 11.7119 21.4688 12.2949 21.5684 12.7988C21.668 13.2969 21.8203 13.7188 22.0254 14.0645C22.2363 14.4043 22.5059 14.6621 22.834 14.8379C23.168 15.0078 23.5693 15.0928 24.0381 15.0928C24.5889 15.0928 25.043 15.0049 25.4004 14.8291C25.7578 14.6533 26.0303 14.3926 26.2178 14.0469C26.4111 13.7012 26.5254 13.2705 26.5605 12.7549ZM33.4336 3.5V17H30.8936V3.5H33.4336ZM35.1211 12.3418V12.1572C35.1211 11.46 35.2207 10.8184 35.4199 10.2324C35.6191 9.64062 35.9092 9.12793 36.29 8.69434C36.6709 8.26074 37.1396 7.92383 37.6963 7.68359C38.2529 7.4375 38.8916 7.31445 39.6123 7.31445C40.333 7.31445 40.9746 7.4375 41.5371 7.68359C42.0996 7.92383 42.5713 8.26074 42.9521 8.69434C43.3389 9.12793 43.6318 9.64062 43.8311 10.2324C44.0303 10.8184 44.1299 11.46 44.1299 12.1572V12.3418C44.1299 13.0332 44.0303 13.6748 43.8311 14.2666C43.6318 14.8525 43.3389 15.3652 42.9521 15.8047C42.5713 16.2383 42.1025 16.5752 41.5459 16.8154C40.9893 17.0557 40.3506 17.1758 39.6299 17.1758C38.9092 17.1758 38.2676 17.0557 37.7051 16.8154C37.1484 16.5752 36.6768 16.2383 36.29 15.8047C35.9092 15.3652 35.6191 14.8525 35.4199 14.2666C35.2207 13.6748 35.1211 13.0332 35.1211 12.3418ZM37.6523 12.1572V12.3418C37.6523 12.7402 37.6875 13.1123 37.7578 13.458C37.8281 13.8037 37.9395 14.1084 38.0918 14.3721C38.25 14.6299 38.4551 14.832 38.707 14.9785C38.959 15.125 39.2666 15.1982 39.6299 15.1982C39.9814 15.1982 40.2832 15.125 40.5352 14.9785C40.7871 14.832 40.9893 14.6299 41.1416 14.3721C41.2939 14.1084 41.4053 13.8037 41.4756 13.458C41.5518 13.1123 41.5898 12.7402 41.5898 12.3418V12.1572C41.5898 11.7705 41.5518 11.4072 41.4756 11.0674C41.4053 10.7217 41.291 10.417 41.1328 10.1533C40.9805 9.88379 40.7783 9.67285 40.5264 9.52051C40.2744 9.36816 39.9697 9.29199 39.6123 9.29199C39.2549 9.29199 38.9502 9.36816 38.6982 9.52051C38.4521 9.67285 38.25 9.88379 38.0918 10.1533C37.9395 10.417 37.8281 10.7217 37.7578 11.0674C37.6875 11.4072 37.6523 11.7705 37.6523 12.1572ZM48.7793 15.1543L50.8887 7.49023H53.5342L50.3262 17H48.7266L48.7793 15.1543ZM47.3291 7.49023L49.4473 15.1631L49.4912 17H47.8828L44.6748 7.49023H47.3291ZM58.9219 17.1758C58.1836 17.1758 57.5215 17.0586 56.9355 16.8242C56.3496 16.584 55.8516 16.2529 55.4414 15.8311C55.0371 15.4092 54.7266 14.9199 54.5098 14.3633C54.293 13.8008 54.1846 13.2031 54.1846 12.5703V12.2188C54.1846 11.498 54.2871 10.8389 54.4922 10.2412C54.6973 9.64355 54.9902 9.125 55.3711 8.68555C55.7578 8.24609 56.2266 7.90918 56.7773 7.6748C57.3281 7.43457 57.9492 7.31445 58.6406 7.31445C59.3145 7.31445 59.9121 7.42578 60.4336 7.64844C60.9551 7.87109 61.3916 8.1875 61.7432 8.59766C62.1006 9.00781 62.3701 9.5 62.5518 10.0742C62.7334 10.6426 62.8242 11.2754 62.8242 11.9727V13.0273H55.2656V11.3398H60.3369V11.1465C60.3369 10.7949 60.2725 10.4814 60.1436 10.2061C60.0205 9.9248 59.833 9.70215 59.5811 9.53809C59.3291 9.37402 59.0068 9.29199 58.6143 9.29199C58.2803 9.29199 57.9932 9.36523 57.7529 9.51172C57.5127 9.6582 57.3164 9.86328 57.1641 10.127C57.0176 10.3906 56.9062 10.7012 56.8301 11.0586C56.7598 11.4102 56.7246 11.7969 56.7246 12.2188V12.5703C56.7246 12.9512 56.7773 13.3027 56.8828 13.625C56.9941 13.9473 57.1494 14.2256 57.3486 14.46C57.5537 14.6943 57.7998 14.876 58.0869 15.0049C58.3799 15.1338 58.7109 15.1982 59.0801 15.1982C59.5371 15.1982 59.9619 15.1104 60.3545 14.9346C60.7529 14.7529 61.0957 14.4805 61.3828 14.1172L62.6133 15.4531C62.4141 15.7402 62.1416 16.0156 61.7959 16.2793C61.4561 16.543 61.0459 16.7598 60.5654 16.9297C60.085 17.0938 59.5371 17.1758 58.9219 17.1758ZM66.7969 9.56445V17H64.2656V7.49023H66.6475L66.7969 9.56445ZM69.6621 7.42871L69.6182 9.77539C69.4951 9.75781 69.3457 9.74316 69.1699 9.73145C69 9.71387 68.8447 9.70508 68.7041 9.70508C68.3467 9.70508 68.0361 9.75195 67.7725 9.8457C67.5146 9.93359 67.2979 10.0654 67.1221 10.2412C66.9521 10.417 66.8232 10.6309 66.7354 10.8828C66.6533 11.1348 66.6064 11.4219 66.5947 11.7441L66.085 11.5859C66.085 10.9707 66.1465 10.4053 66.2695 9.88965C66.3926 9.36816 66.5713 8.91406 66.8057 8.52734C67.0459 8.14062 67.3389 7.8418 67.6846 7.63086C68.0303 7.41992 68.4258 7.31445 68.8711 7.31445C69.0117 7.31445 69.1553 7.32617 69.3018 7.34961C69.4482 7.36719 69.5684 7.39355 69.6621 7.42871ZM74.25 15.1543L76.3594 7.49023H79.0049L75.7969 17H74.1973L74.25 15.1543ZM72.7998 7.49023L74.918 15.1631L74.9619 17H73.3535L70.1455 7.49023H72.7998ZM82.8105 7.49023V17H80.2705V7.49023H82.8105ZM80.1123 5.01172C80.1123 4.64258 80.2412 4.33789 80.499 4.09766C80.7568 3.85742 81.1025 3.7373 81.5361 3.7373C81.9639 3.7373 82.3066 3.85742 82.5645 4.09766C82.8281 4.33789 82.96 4.64258 82.96 5.01172C82.96 5.38086 82.8281 5.68555 82.5645 5.92578C82.3066 6.16602 81.9639 6.28613 81.5361 6.28613C81.1025 6.28613 80.7568 6.16602 80.499 5.92578C80.2412 5.68555 80.1123 5.38086 80.1123 5.01172ZM87.5742 3.5V17H85.0342V3.5H87.5742ZM92.3379 3.5V17H89.7979V3.5H92.3379ZM98.8066 17.1758C98.0684 17.1758 97.4062 17.0586 96.8203 16.8242C96.2344 16.584 95.7363 16.2529 95.3262 15.8311C94.9219 15.4092 94.6113 14.9199 94.3945 14.3633C94.1777 13.8008 94.0693 13.2031 94.0693 12.5703V12.2188C94.0693 11.498 94.1719 10.8389 94.377 10.2412C94.582 9.64355 94.875 9.125 95.2559 8.68555C95.6426 8.24609 96.1113 7.90918 96.6621 7.6748C97.2129 7.43457 97.834 7.31445 98.5254 7.31445C99.1992 7.31445 99.7969 7.42578 100.318 7.64844C100.84 7.87109 101.276 8.1875 101.628 8.59766C101.985 9.00781 102.255 9.5 102.437 10.0742C102.618 10.6426 102.709 11.2754 102.709 11.9727V13.0273H95.1504V11.3398H100.222V11.1465C100.222 10.7949 100.157 10.4814 100.028 10.2061C99.9053 9.9248 99.7178 9.70215 99.4658 9.53809C99.2139 9.37402 98.8916 9.29199 98.499 9.29199C98.165 9.29199 97.8779 9.36523 97.6377 9.51172C97.3975 9.6582 97.2012 9.86328 97.0488 10.127C96.9023 10.3906 96.791 10.7012 96.7148 11.0586C96.6445 11.4102 96.6094 11.7969 96.6094 12.2188V12.5703C96.6094 12.9512 96.6621 13.3027 96.7676 13.625C96.8789 13.9473 97.0342 14.2256 97.2334 14.46C97.4385 14.6943 97.6846 14.876 97.9717 15.0049C98.2646 15.1338 98.5957 15.1982 98.9648 15.1982C99.4219 15.1982 99.8467 15.1104 100.239 14.9346C100.638 14.7529 100.98 14.4805 101.268 14.1172L102.498 15.4531C102.299 15.7402 102.026 16.0156 101.681 16.2793C101.341 16.543 100.931 16.7598 100.45 16.9297C99.9697 17.0938 99.4219 17.1758 98.8066 17.1758Z" fill="white"/>
<path d="M5.41127 16.6188C6.29501 14.8113 6.35399 12.0274 6.4992 9.29492C6.68879 12.2248 6.94382 14.919 6.2369 16.9567C5.79383 18.1377 5.40092 18.5981 4.66221 19.2511C4.41701 19.4725 4.03876 19.4532 3.81737 19.208C3.56944 18.9333 3.62758 18.5006 3.94166 18.3015C3.98633 18.2627 4.82173 17.836 5.41127 16.6188Z" fill="#96BF16"/>
<path d="M5.41127 16.6188C6.29501 14.8113 6.35399 12.0274 6.4992 9.29492C6.68879 12.2248 6.94382 14.919 6.2369 16.9567C5.79383 18.1377 5.40092 18.5981 4.66221 19.2511C4.41701 19.4725 4.03876 19.4532 3.81737 19.208C3.56944 18.9333 3.62758 18.5006 3.94166 18.3015C3.98633 18.2627 4.82173 17.836 5.41127 16.6188Z" fill="#96BF16"/>
<path d="M12.4991 7.10271C11.2979 8.30393 6.5 8.50001 6.5 8.50001C6.5 8.50001 6.69608 3.70206 7.8973 2.50087C8.56513 1.83304 9.6492 1.83304 10.317 2.50087C10.7981 2.98203 10.9329 3.67779 10.7223 4.27772C11.3222 4.06707 12.018 4.20183 12.4981 4.68201C13.1669 5.35082 13.1669 6.43488 12.4991 7.10271ZM0.50086 9.89731C1.70208 8.69613 6.5 8.50001 6.5 8.50001C6.5 8.50001 6.30392 13.298 5.1027 14.4992C4.43487 15.167 3.35081 15.167 2.68301 14.4992C2.20185 14.018 2.06709 13.3222 2.2777 12.7223C1.67778 12.933 0.982015 12.7982 0.501865 12.318C-0.166937 11.6492 -0.166937 10.5651 0.50086 9.89731ZM7.8973 14.4992C6.69612 13.298 6.5 8.50001 6.5 8.50001C6.5 8.50001 11.298 8.69613 12.4991 9.89734C13.167 10.5652 13.1669 11.6492 12.4991 12.317C12.018 12.7982 11.3222 12.933 10.7223 12.7223C10.9329 13.3223 10.7982 14.018 10.318 14.4982C9.6492 15.167 8.56513 15.167 7.8973 14.4992ZM5.1027 2.5009C6.30388 3.70212 6.5 8.50001 6.5 8.50001C6.5 8.50001 1.70204 8.30393 0.50086 7.10271C-0.166969 6.43488 -0.166937 5.35082 0.50086 4.68302C0.982015 4.20187 1.67778 4.0671 2.2777 4.27772C2.06705 3.67779 2.20182 2.98203 2.682 2.50188C3.35081 1.83311 4.43487 1.83311 5.1027 2.5009Z" fill="#A1D51C"/>
<path d="M12.4991 7.10271C11.2979 8.30393 6.5 8.50001 6.5 8.50001C6.5 8.50001 6.69608 3.70206 7.8973 2.50087C8.56513 1.83304 9.6492 1.83304 10.317 2.50087C10.7981 2.98203 10.9329 3.67779 10.7223 4.27772C11.3222 4.06707 12.018 4.20183 12.4981 4.68201C13.1669 5.35082 13.1669 6.43488 12.4991 7.10271ZM0.50086 9.89731C1.70208 8.69613 6.5 8.50001 6.5 8.50001C6.5 8.50001 6.30392 13.298 5.1027 14.4992C4.43487 15.167 3.35081 15.167 2.68301 14.4992C2.20185 14.018 2.06709 13.3222 2.2777 12.7223C1.67778 12.933 0.982015 12.7982 0.501865 12.318C-0.166937 11.6492 -0.166937 10.5651 0.50086 9.89731ZM7.8973 14.4992C6.69612 13.298 6.5 8.50001 6.5 8.50001C6.5 8.50001 11.298 8.69613 12.4991 9.89734C13.167 10.5652 13.1669 11.6492 12.4991 12.317C12.018 12.7982 11.3222 12.933 10.7223 12.7223C10.9329 13.3223 10.7982 14.018 10.318 14.4982C9.6492 15.167 8.56513 15.167 7.8973 14.4992ZM5.1027 2.5009C6.30388 3.70212 6.5 8.50001 6.5 8.50001C6.5 8.50001 1.70204 8.30393 0.50086 7.10271C-0.166969 6.43488 -0.166937 5.35082 0.50086 4.68302C0.982015 4.20187 1.67778 4.0671 2.2777 4.27772C2.06705 3.67779 2.20182 2.98203 2.682 2.50188C3.35081 1.83311 4.43487 1.83311 5.1027 2.5009Z" fill="#A1D51C"/>
</svg>
